<?xml version="1.0" standalone="no"?>
<!DOCTYPE svg PUBLIC "-//W3C//DTD SVG 20010904//EN"
 "http://www.w3.org/TR/2001/REC-SVG-20010904/DTD/svg10.dtd">
<svg version="1.0" xmlns="http://www.w3.org/2000/svg"
 width="558.000000pt" height="558.000000pt" viewBox="0 0 558.000000 558.000000"
 preserveAspectRatio="xMidYMid meet">
<metadata>
Created by potrace 1.14, written by Peter Selinger 2001-2017
</metadata>
<g transform="translate(0.000000,558.000000) scale(0.100000,-0.100000)"
fill="#000000" stroke="none">
<path d="M2465 5474 c-16 -2 -73 -9 -125 -15 -280 -32 -583 -124 -850 -260
-248 -126 -441 -268 -650 -478 -226 -227 -349 -398 -485 -676 -123 -249 -194
-476 -237 -750 -31 -200 -31 -550 0 -750 67 -430 234 -827 496 -1175 90 -120
303 -340 421 -434 310 -249 677 -428 1045 -509 234 -52 491 -75 685 -62 l105
7 -68 45 c-373 253 -626 635 -713 1076 -26 133 -35 361 -20 497 79 680 547
1238 1201 1431 477 141 1011 52 1428 -238 138 -96 339 -299 428 -433 l69 -105
8 90 c12 128 1 408 -22 560 -41 270 -113 500 -236 750 -136 278 -259 449 -485
676 -85 86 -191 183 -235 216 -381 286 -769 450 -1227 519 -98 14 -469 27
-533 18z"/>
</g>
</svg>
